0
SECTION
2
HEADER
9
$INSUNITS
70
4
9
$ACADVER
1
AC1014
9
$HANDSEED
5
FFFF
0
ENDSEC
0
SECTION
2
TABLES
0
TABLE
2
VPORT
5
8
100
AcDbSymbolTable
0
ENDTAB
0
TABLE
2
LTYPE
5
5
100
AcDbSymbolTable
0
LTYPE
5
14
100
AcDbSymbolTableRecord
100
AcDbLinetypeTableRecord
2
BYBLOCK
70
0
0
LTYPE
5
15
100
AcDbSymbolTableRecord
100
AcDbLinetypeTableRecord
2
BYLAYER
70
0
0
ENDTAB
0
TABLE
2
LAYER
5
2
100
AcDbSymbolTable
70
2
0
LAYER
5
50
100
AcDbSymbolTableRecord
100
AcDbLayerTableRecord
2
0
70
0
6
CONTINUOUS
0
ENDTAB
0
TABLE
2
STYLE
5
3
100
AcDbSymbolTable
70
1
0
STYLE
5
11
100
AcDbSymbolTableRecord
100
AcDbTextStyleTableRecord
2
STANDARD
70
0
0
ENDTAB
0
TABLE
2
VIEW
5
6
100
AcDbSymbolTable
70
0
0
ENDTAB
0
TABLE
2
UCS
5
7
100
AcDbSymbolTable
70
0
0
ENDTAB
0
TABLE
2
APPID
5
9
100
AcDbSymbolTable
70
2
0
APPID
5
12
100
AcDbSymbolTableRecord
100
AcDbRegAppTableRecord
2
ACAD
70
0
0
ENDTAB
0
TABLE
2
DIMSTYLE
5
A
100
AcDbSymbolTable
70
1
0
ENDTAB
0
TABLE
2
BLOCK_RECORD
5
1
100
AcDbSymbolTable
70
1
0
BLOCK_RECORD
5
1F
100
AcDbSymbolTableRecord
100
AcDbBlockTableRecord
2
*MODEL_SPACE
0
BLOCK_RECORD
5
1B
100
AcDbSymbolTableRecord
100
AcDbBlockTableRecord
2
*PAPER_SPACE
0
ENDTAB
0
ENDSEC
0
SECTION
2
BLOCKS
0
BLOCK
5
20
100
AcDbEntity
100
AcDbBlockBegin
2
*MODEL_SPACE
0
ENDBLK
5
21
100
AcDbEntity
100
AcDbBlockEnd
0
BLOCK
5
1C
100
AcDbEntity
100
AcDbBlockBegin
2
*PAPER_SPACE
0
ENDBLK
5
1D
100
AcDbEntity
100
AcDbBlockEnd
0
ENDSEC
0
SECTION
2
ENTITIES
0
ARC
5
100
100
AcDbEntity
8
0
100
AcDbCircle
10
0
20
0
30
0
40
350
210
0
220
0
230
1
100
AcDbArc
50
0
51
45
0
LINE
5
101
100
AcDbEntity
8
0
100
AcDbLine
10
93.999999999999986
20
15.000000000000002
30
0
11
100
21
15
31
0
0
LINE
5
102
100
AcDbEntity
8
0
100
AcDbLine
10
66
20
15
30
0
11
59.999999999999993
21
15
31
0
0
LINE
5
103
100
AcDbEntity
8
0
100
AcDbLine
10
82.999999999999986
20
39
30
0
11
102.99999999999999
21
23.999999999999993
31
0
0
LINE
5
104
100
AcDbEntity
8
0
100
AcDbLine
10
69.999999999999986
20
11
30
0
11
69.999999999999986
21
-6.1232339957367663e-16
31
0
0
ARC
5
105
100
AcDbEntity
8
0
100
AcDbCircle
10
100
20
20
30
0
40
5
210
0
220
0
230
1
100
AcDbArc
50
-90
51
53.130102354156065
0
ARC
5
106
100
AcDbEntity
8
0
100
AcDbCircle
10
59.999999999999993
20
20
30
0
40
5.0000000000000036
210
0
220
0
230
1
100
AcDbArc
50
126.86989764584409
51
270
0
ARC
5
107
100
AcDbEntity
8
0
100
AcDbCircle
10
79.999999999999986
20
35
30
0
40
4.9999999999999982
210
0
220
-0
230
1
100
AcDbArc
50
53.130102354155973
51
126.86989764584392
0
LINE
5
108
100
AcDbEntity
8
0
100
AcDbLine
10
56.999999999999986
20
24
30
0
11
77
21
39
31
0
0
LINE
5
109
100
AcDbEntity
8
0
100
AcDbLine
10
90
20
6.1232339957367663e-16
30
0
11
90
21
11
31
0
0
ARC
5
110
100
AcDbEntity
8
0
100
AcDbCircle
10
93.999999999999986
20
11
30
0
40
4.0000000000000018
210
0
220
-0
230
1
100
AcDbArc
50
90
51
180
0
ARC
5
111
100
AcDbEntity
8
0
100
AcDbCircle
10
66
20
10.999999999999998
30
0
40
3.9999999999999947
210
0
220
-0
230
1
100
AcDbArc
50
0
51
90
0
LINE
5
112
100
AcDbEntity
8
0
100
AcDbLine
10
284
20
15.000000000000002
30
0
11
290
21
15
31
0
0
LINE
5
113
100
AcDbEntity
8
0
100
AcDbLine
10
256
20
15
30
0
11
250
21
15
31
0
0
LINE
5
114
100
AcDbEntity
8
0
100
AcDbLine
10
273
20
39
30
0
11
293
21
23.999999999999993
31
0
0
LINE
5
115
100
AcDbEntity
8
0
100
AcDbLine
10
260
20
11
30
0
11
260
21
-6.1232339957367663e-16
31
0
0
ARC
5
116
100
AcDbEntity
8
0
100
AcDbCircle
10
290
20
20
30
0
40
5
210
0
220
0
230
1
100
AcDbArc
50
-90
51
53.13010235415593
0
ARC
5
117
100
AcDbEntity
8
0
100
AcDbCircle
10
250
20
20
30
0
40
5.0000000000000036
210
0
220
0
230
1
100
AcDbArc
50
126.86989764584403
51
270
0
ARC
5
118
100
AcDbEntity
8
0
100
AcDbCircle
10
270
20
35
30
0
40
5.0000000000000036
210
0
220
-0
230
1
100
AcDbArc
50
53.130102354155973
51
126.86989764584403
0
LINE
5
119
100
AcDbEntity
8
0
100
AcDbLine
10
247
20
24
30
0
11
267
21
39
31
0
0
LINE
5
120
100
AcDbEntity
8
0
100
AcDbLine
10
280
20
6.1232339957367663e-16
30
0
11
280
21
11
31
0
0
ARC
5
121
100
AcDbEntity
8
0
100
AcDbCircle
10
284
20
11
30
0
40
4.0000000000000018
210
0
220
-0
230
1
100
AcDbArc
50
90
51
180
0
ARC
5
122
100
AcDbEntity
8
0
100
AcDbCircle
10
256
20
10.999999999999998
30
0
40
3.9999999999999858
210
0
220
-0
230
1
100
AcDbArc
50
0
51
90
0
LINE
5
123
100
AcDbEntity
8
0
100
AcDbLine
10
55.861435713737251
20
77.074639149333692
30
0
11
60.104076400856535
21
81.317279836452968
31
0
0
LINE
5
124
100
AcDbEntity
8
0
100
AcDbLine
10
36.062445840513924
20
57.27564927611035
30
0
11
31.81980515339464
21
53.033008588991066
31
0
0
LINE
5
125
100
AcDbEntity
8
0
100
AcDbLine
10
31.112698372208094
20
86.267027304758813
30
0
11
55.861435713737251
21
89.802561210691536
31
0
0
LINE
5
126
100
AcDbEntity
8
0
100
AcDbLine
10
41.719300090006314
20
57.27564927611035
30
0
11
49.497474683058329
21
49.497474683058336
31
0
0
ARC
5
127
100
AcDbEntity
8
0
100
AcDbCircle
10
56.568542494923797
20
84.852813742385706
30
0
40
5.0000000000000089
210
-0
220
0
230
1
100
AcDbArc
50
-45
51
98.13010235415598
0
ARC
5
128
100
AcDbEntity
8
0
100
AcDbCircle
10
28.284271247461909
20
56.568542494923804
30
0
40
5.0000000000000071
210
0
220
0
230
1
100
AcDbArc
50
171.86989764584416
51
314.99999999999994
0
ARC
5
129
100
AcDbEntity
8
0
100
AcDbCircle
10
31.81980515339464
20
81.317279836452968
30
0
40
5.000000000000008
210
0
220
0
230
1
100
AcDbArc
50
98.130102354155937
51
171.86989764584416
0
LINE
5
130
100
AcDbEntity
8
0
100
AcDbLine
10
23.334523779156065
20
57.275649276110343
30
0
11
26.870057685088806
21
82.024386617639507
31
0
0
LINE
5
131
100
AcDbEntity
8
0
100
AcDbLine
10
63.63961030678928
20
63.639610306789287
30
0
11
55.861435713737251
21
71.417784899841308
31
0
0
ARC
5
132
100
AcDbEntity
8
0
100
AcDbCircle
10
58.689862838483442
20
74.246212024587493
30
0
40
4.0000000000000044
210
0
220
0
230
1
100
AcDbArc
50
134.99999999999994
51
224.99999999999991
0
ARC
5
133
100
AcDbEntity
8
0
100
AcDbCircle
10
38.890872965260115
20
54.447222151364159
30
0
40
4.0000000000000044
210
0
220
-0
230
1
100
AcDbArc
50
44.999999999999922
51
135
0
LINE
5
134
100
AcDbEntity
8
0
100
AcDbLine
10
190.21172413918129
20
211.42492757477771
30
0
11
194.45436482630058
21
215.667568261897
31
0
0
LINE
5
135
100
AcDbEntity
8
0
100
AcDbLine
10
170.41273426595797
20
191.62593770155439
30
0
11
166.1700935788387
21
187.38329701443513
31
0
0
LINE
5
136
100
AcDbEntity
8
0
100
AcDbLine
10
165.46298679765215
20
220.61731573020282
30
0
11
190.21172413918129
21
224.15284963613558
31
0
0
LINE
5
137
100
AcDbEntity
8
0
100
AcDbLine
10
176.06958851545033
20
191.62593770155439
30
0
11
183.84776310850239
21
183.84776310850236
31
0
0
ARC
5
138
100
AcDbEntity
8
0
100
AcDbCircle
10
190.91883092036784
20
219.20310216782974
30
0
40
4.9999999999999902
210
-0
220
0
230
1
100
AcDbArc
50
-45
51
98.130102354156023
0
ARC
5
139
100
AcDbEntity
8
0
100
AcDbCircle
10
162.63455967290597
20
190.91883092036784
30
0
40
5.0000000000000258
210
0
220
0
230
1
100
AcDbArc
50
171.86989764584399
51
315.00000000000028
0
ARC
5
140
100
AcDbEntity
8
0
100
AcDbCircle
10
166.1700935788387
20
215.667568261897
30
0
40
4.9999999999999902
210
0
220
0
230
1
100
AcDbArc
50
98.130102354156065
51
171.86989764584439
0
LINE
5
141
100
AcDbEntity
8
0
100
AcDbLine
10
157.68481220460012
20
191.62593770155439
30
0
11
161.22034611053283
21
216.37467504308353
31
0
0
LINE
5
142
100
AcDbEntity
8
0
100
AcDbLine
10
197.98989873223334
20
197.98989873223331
30
0
11
190.21172413918129
21
205.76807332528534
31
0
0
ARC
5
143
100
AcDbEntity
8
0
100
AcDbCircle
10
193.0401512639275
20
208.59650045003153
30
0
40
3.999999999999992
210
0
220
0
230
1
100
AcDbArc
50
135.00000000000031
51
224.99999999999972
0
ARC
5
144
100
AcDbEntity
8
0
100
AcDbCircle
10
173.24116139070415
20
188.79751057680821
30
0
40
3.999999999999992
210
0
220
-0
230
1
100
AcDbArc
50
45
51
135
0
LWPOLYLINE
5
145
100
AcDbEntity
8
0
100
AcDbPolyline
90
2
70
1
43
0.0
10
197.98989873223334
20
197.98989873223331
10
247.48737341529164
20
247.48737341529164
0
LWPOLYLINE
5
146
100
AcDbEntity
8
0
100
AcDbPolyline
90
2
70
1
43
0.0
10
280
20
6.1232339957367663e-16
10
350
20
0
0
LWPOLYLINE
5
147
100
AcDbEntity
8
0
100
AcDbPolyline
90
4
70
1
43
0.0
10
165
20
3.1553870474511345e-16
42
0.19891236737965803
10
116.67261889578035
20
116.67261889578035
10
130.81475451951127
20
130.8147545195113
42
-0.19891236737965801
10
185
20
0
0
LINE
5
148
100
AcDbEntity
8
0
100
AcDbLine
10
63.63961030678928
20
63.639610306789287
30
0
11
183.84776310850239
21
183.84776310850236
31
0
0
LINE
5
149
100
AcDbEntity
8
0
100
AcDbLine
10
0
20
0
30
0
11
49.497474683058329
21
49.497474683058336
31
0
0
LINE
5
150
100
AcDbEntity
8
0
100
AcDbLine
10
0
20
0
30
0
11
69.999999999999986
21
-6.1232339957367663e-16
31
0
0
LINE
5
151
100
AcDbEntity
8
0
100
AcDbLine
10
90
20
6.1232339957367663e-16
30
0
11
260
21
-6.1232339957367663e-16
31
0
0
ENDSEC
0
SECTION
2
OBJECTS
0
DICTIONARY
5
C
100
AcDbDictionary
3
ACAD_GROUP
350
D
3
ACAD_MLINESTYLE
350
17
0
DICTIONARY
5
D
100
AcDbDictionary
0
DICTIONARY
5
1A
330
C
100
AcDbDictionary
0
DICTIONARY
5
17
100
AcDbDictionary
0
ENDSEC
0
EOF
