0
SECTION
2
HEADER
9
$INSUNITS
70
4
9
$ACADVER
1
AC1014
9
$HANDSEED
5
FFFF
0
ENDSEC
0
SECTION
2
TABLES
0
TABLE
2
VPORT
5
8
100
AcDbSymbolTable
0
ENDTAB
0
TABLE
2
LTYPE
5
5
100
AcDbSymbolTable
0
LTYPE
5
14
100
AcDbSymbolTableRecord
100
AcDbLinetypeTableRecord
2
BYBLOCK
70
0
0
LTYPE
5
15
100
AcDbSymbolTableRecord
100
AcDbLinetypeTableRecord
2
BYLAYER
70
0
0
ENDTAB
0
TABLE
2
LAYER
5
2
100
AcDbSymbolTable
70
2
0
LAYER
5
50
100
AcDbSymbolTableRecord
100
AcDbLayerTableRecord
2
0
70
0
6
CONTINUOUS
0
ENDTAB
0
TABLE
2
STYLE
5
3
100
AcDbSymbolTable
70
1
0
STYLE
5
11
100
AcDbSymbolTableRecord
100
AcDbTextStyleTableRecord
2
STANDARD
70
0
0
ENDTAB
0
TABLE
2
VIEW
5
6
100
AcDbSymbolTable
70
0
0
ENDTAB
0
TABLE
2
UCS
5
7
100
AcDbSymbolTable
70
0
0
ENDTAB
0
TABLE
2
APPID
5
9
100
AcDbSymbolTable
70
2
0
APPID
5
12
100
AcDbSymbolTableRecord
100
AcDbRegAppTableRecord
2
ACAD
70
0
0
ENDTAB
0
TABLE
2
DIMSTYLE
5
A
100
AcDbSymbolTable
70
1
0
ENDTAB
0
TABLE
2
BLOCK_RECORD
5
1
100
AcDbSymbolTable
70
1
0
BLOCK_RECORD
5
1F
100
AcDbSymbolTableRecord
100
AcDbBlockTableRecord
2
*MODEL_SPACE
0
BLOCK_RECORD
5
1B
100
AcDbSymbolTableRecord
100
AcDbBlockTableRecord
2
*PAPER_SPACE
0
ENDTAB
0
ENDSEC
0
SECTION
2
BLOCKS
0
BLOCK
5
20
100
AcDbEntity
100
AcDbBlockBegin
2
*MODEL_SPACE
0
ENDBLK
5
21
100
AcDbEntity
100
AcDbBlockEnd
0
BLOCK
5
1C
100
AcDbEntity
100
AcDbBlockBegin
2
*PAPER_SPACE
0
ENDBLK
5
1D
100
AcDbEntity
100
AcDbBlockEnd
0
ENDSEC
0
SECTION
2
ENTITIES
0
LWPOLYLINE
5
100
100
AcDbEntity
8
0
100
AcDbPolyline
90
51
70
1
43
0.0
10
102.51262658470829
20
247.48737341529164
42
0.19891236737965803
10
0
20
0
10
69.999999999999929
20
3.3306690738754696e-14
10
69.999999999999929
20
11.000000000000034
42
0.41421356237309492
10
65.999999999999929
20
15.000000000000034
10
59.999999999999929
20
15.000000000000027
42
-0.72075922005612592
10
56.999999999999922
20
24.000000000000028
10
76.999999999999915
20
39.000000000000036
42
-0.33333333333333365
10
82.999999999999943
20
39.000000000000028
10
102.99999999999994
20
24.000000000000025
42
-0.7207592200561258
10
99.999999999999929
20
15.000000000000034
10
93.999999999999929
20
15.000000000000036
42
0.41421356237309503
10
89.999999999999929
20
11.000000000000034
10
89.999999999999929
20
3.3677786976552216e-14
10
259.99999999999994
20
8.8817841970012523e-15
10
259.99999999999994
20
11.000000000000011
42
0.41421356237309492
10
255.99999999999994
20
15.000000000000009
10
249.99999999999994
20
15.000000000000004
42
-0.72075922005612592
10
246.99999999999991
20
24.000000000000007
10
266.99999999999994
20
39.000000000000007
42
-0.33333333333333398
10
272.99999999999994
20
39.000000000000007
10
292.99999999999994
20
24.000000000000004
42
-0.7207592200561258
10
289.99999999999994
20
15.000000000000009
10
283.99999999999989
20
15.000000000000011
42
0.41421356237309503
10
279.99999999999994
20
11.000000000000011
10
279.99999999999994
20
1.0409497792752502e-14
10
349.99999999999994
20
0
10
300.50252531694161
20
49.497474683058329
10
308.28069990999364
20
57.275649276110343
42
-0.41421356237309459
10
313.93755415948601
20
57.27564927611035
10
318.18019484660527
20
53.033008588991066
42
0.72075922005612614
10
326.66547622084386
20
57.275649276110343
10
323.12994231491109
20
82.024386617639507
42
0.33333333333333343
10
318.88730162779183
20
86.267027304758813
10
294.13856428626269
20
89.802561210691536
42
0.72075922005612625
10
289.89592359914343
20
81.317279836452968
10
294.13856428626269
20
77.074639149333677
42
-0.41421356237309548
10
294.13856428626269
20
71.417784899841308
10
286.36038969321066
20
63.63961030678928
10
166.15223689149755
20
183.84776310850239
10
173.93041148454958
20
191.62593770155439
42
-0.41421356237309503
10
179.58726573404195
20
191.62593770155439
10
183.82990642116124
20
187.38329701443513
42
0.72075922005612614
10
192.31518779539982
20
191.62593770155439
10
188.77965388946708
20
216.37467504308353
42
0.33333333333333554
10
184.53701320234779
20
220.61731573020285
10
159.78827586081863
20
224.15284963613558
42
0.72075922005612414
10
155.54563517369934
20
215.66756826189703
10
159.78827586081863
20
211.42492757477771
42
-0.41421356237309503
10
159.78827586081863
20
205.76807332528534
10
152.0101012677666
20
197.98989873223334
0
LWPOLYLINE
5
101
100
AcDbEntity
8
0
100
AcDbPolyline
90
6
70
1
43
0.0
10
233.32738110421957
20
116.67261889578035
10
219.18524548048865
20
130.8147545195113
10
233.32738110421957
20
116.67261889578035
10
219.18524548048865
20
130.8147545195113
42
0.19891236737965801
10
164.99999999999994
20
2.2655965784226034e-14
10
184.99999999999994
20
-1.7763568394002505e-14
42
-0.19891236737965801
0
LINE
5
102
100
AcDbEntity
8
0
100
AcDbLine
10
279.99999999999994
20
1.0409497792752502e-14
30
0
11
349.99999999999994
21
0
31
0
0
LINE
5
103
100
AcDbEntity
8
0
100
AcDbLine
10
279.99999999999994
20
1.0409497792752502e-14
30
0
11
349.99999999999994
21
0
31
0
0
ENDSEC
0
SECTION
2
OBJECTS
0
DICTIONARY
5
C
100
AcDbDictionary
3
ACAD_GROUP
350
D
3
ACAD_MLINESTYLE
350
17
0
DICTIONARY
5
D
100
AcDbDictionary
0
DICTIONARY
5
1A
330
C
100
AcDbDictionary
0
DICTIONARY
5
17
100
AcDbDictionary
0
ENDSEC
0
EOF
