0
SECTION
2
HEADER
9
$INSUNITS
70
4
9
$ACADVER
1
AC1014
9
$HANDSEED
5
FFFF
0
ENDSEC
0
SECTION
2
TABLES
0
TABLE
2
VPORT
5
8
100
AcDbSymbolTable
0
ENDTAB
0
TABLE
2
LTYPE
5
5
100
AcDbSymbolTable
0
LTYPE
5
14
100
AcDbSymbolTableRecord
100
AcDbLinetypeTableRecord
2
BYBLOCK
70
0
0
LTYPE
5
15
100
AcDbSymbolTableRecord
100
AcDbLinetypeTableRecord
2
BYLAYER
70
0
0
ENDTAB
0
TABLE
2
LAYER
5
2
100
AcDbSymbolTable
70
2
0
LAYER
5
50
100
AcDbSymbolTableRecord
100
AcDbLayerTableRecord
2
0
70
0
6
CONTINUOUS
0
ENDTAB
0
TABLE
2
STYLE
5
3
100
AcDbSymbolTable
70
1
0
STYLE
5
11
100
AcDbSymbolTableRecord
100
AcDbTextStyleTableRecord
2
STANDARD
70
0
0
ENDTAB
0
TABLE
2
VIEW
5
6
100
AcDbSymbolTable
70
0
0
ENDTAB
0
TABLE
2
UCS
5
7
100
AcDbSymbolTable
70
0
0
ENDTAB
0
TABLE
2
APPID
5
9
100
AcDbSymbolTable
70
2
0
APPID
5
12
100
AcDbSymbolTableRecord
100
AcDbRegAppTableRecord
2
ACAD
70
0
0
ENDTAB
0
TABLE
2
DIMSTYLE
5
A
100
AcDbSymbolTable
70
1
0
ENDTAB
0
TABLE
2
BLOCK_RECORD
5
1
100
AcDbSymbolTable
70
1
0
BLOCK_RECORD
5
1F
100
AcDbSymbolTableRecord
100
AcDbBlockTableRecord
2
*MODEL_SPACE
0
BLOCK_RECORD
5
1B
100
AcDbSymbolTableRecord
100
AcDbBlockTableRecord
2
*PAPER_SPACE
0
ENDTAB
0
ENDSEC
0
SECTION
2
BLOCKS
0
BLOCK
5
20
100
AcDbEntity
100
AcDbBlockBegin
2
*MODEL_SPACE
0
ENDBLK
5
21
100
AcDbEntity
100
AcDbBlockEnd
0
BLOCK
5
1C
100
AcDbEntity
100
AcDbBlockBegin
2
*PAPER_SPACE
0
ENDBLK
5
1D
100
AcDbEntity
100
AcDbBlockEnd
0
ENDSEC
0
SECTION
2
ENTITIES
0
LWPOLYLINE
5
100
100
AcDbEntity
8
0
100
AcDbPolyline
90
52
70
1
43
0.0
10
350
20
0
10
350
20
350
10
280
20
350
10
280
20
361
42
-0.41421356237309503
10
284
20
365
10
290
20
365
42
0.72075922005612525
10
293
20
374
10
273
20
389
42
0.33333333333333487
10
267
20
389
10
247
20
374
42
0.72075922005612525
10
250
20
365
10
256
20
365
42
-0.41421356237309503
10
260
20
361
10
260
20
350
10
89.999999999999972
20
350
10
90
20
361
42
-0.41421356237309503
10
93.999999999999986
20
365
10
100
20
365
42
0.72075922005612647
10
102.99999999999999
20
374
10
82.999999999999986
20
389
42
0.33333333333333415
10
77
20
389
10
56.999999999999986
20
374
42
0.72075922005612525
10
59.999999999999993
20
365
10
66
20
365
42
-0.41421356237309503
10
69.999999999999986
20
361
10
69.999999999999972
20
350
10
0
20
350
10
0
20
0
10
69.999999999999986
20
0
10
69.999999999999986
20
11
42
0.41421356237309492
10
66
20
15
10
59.999999999999993
20
14.999999999999996
42
-0.72075922005612592
10
56.999999999999986
20
24
10
77
20
39
42
-0.33333333333333326
10
82.999999999999986
20
39
10
102.99999999999999
20
24.000000000000004
42
-0.7207592200561268
10
100
20
15
10
93.999999999999986
20
15.000000000000002
42
0.41421356237309503
10
90
20
11
10
90
20
6.1232339957367663e-16
10
260
20
0
10
260
20
11
42
0.41421356237309492
10
256
20
15
10
250
20
14.999999999999996
42
-0.72075922005612592
10
247
20
24
10
267
20
39
42
-0.33333333333333398
10
273
20
39
10
293
20
23.999999999999993
42
-0.7207592200561258
10
290
20
15
10
284
20
15.000000000000002
42
0.41421356237309503
10
280
20
11
10
280
20
6.1232339957367663e-16
0
LWPOLYLINE
5
101
100
AcDbEntity
8
0
100
AcDbPolyline
90
4
70
1
43
0.0
10
165
20
350
10
185
20
350
10
185
20
0
10
165
20
0
0
ENDSEC
0
SECTION
2
OBJECTS
0
DICTIONARY
5
C
100
AcDbDictionary
3
ACAD_GROUP
350
D
3
ACAD_MLINESTYLE
350
17
0
DICTIONARY
5
D
100
AcDbDictionary
0
DICTIONARY
5
1A
330
C
100
AcDbDictionary
0
DICTIONARY
5
17
100
AcDbDictionary
0
ENDSEC
0
EOF
